<mxfile host="app.diagrams.net" agent="Mozilla/5.0 (Windows NT 10.0; Win64; x64) AppleWebKit/537.36 (KHTML, like Gecko) Chrome/133.0.0.0 Safari/537.36" version="25.0.3">
  <diagram id="codeviz-diagram" name="System Diagram">
    <mxGraphModel dx="983" dy="1085" grid="1" gridSize="10" guides="1" tooltips="1" connect="1" arrows="1" fold="1" page="1" pageScale="1" pageWidth="1169" pageHeight="827" math="0" shadow="0">
      <root>
        <mxCell id="0" />
        <mxCell id="1" parent="0" />
        <mxCell id="subGraph8" value="" style="html=1;whiteSpace=wrap;container=1;fillColor=#dae8fc;strokeColor=#6c8ebf;dashed=1;fillOpacity=20;strokeWidth=2;containerType=none;recursiveResize=0;movable=1;resizable=1;autosize=0;dropTarget=0" parent="1" vertex="1">
          <mxGeometry x="128" y="394" width="1572" height="2466" as="geometry" />
        </mxCell>
        <mxCell id="subGraph7" value="" style="html=1;whiteSpace=wrap;container=1;fillColor=#dae8fc;strokeColor=#6c8ebf;dashed=1;fillOpacity=20;strokeWidth=2;containerType=none;recursiveResize=0;movable=1;resizable=1;autosize=0;dropTarget=0" parent="subGraph8" vertex="1">
          <mxGeometry x="927" y="890" width="520" height="220" as="geometry" />
        </mxCell>
        <mxCell id="ConfigManager" value="Config Manager&lt;br&gt;Python Environs" style="rounded=1;whiteSpace=wrap;html=1;fillColor=#f5f5f5" parent="subGraph7" vertex="1">
          <mxGeometry x="40" y="120" width="120" height="60" as="geometry" />
        </mxCell>
        <mxCell id="DTOLayer" value="DTO Layer&lt;br&gt;Pydantic" style="rounded=1;whiteSpace=wrap;html=1;fillColor=#f5f5f5" parent="subGraph7" vertex="1">
          <mxGeometry x="320" y="120" width="120" height="60" as="geometry" />
        </mxCell>
        <mxCell id="ExportService" value="Export Service&lt;br&gt;CSV" style="rounded=1;whiteSpace=wrap;html=1;fillColor=#f5f5f5" parent="subGraph7" vertex="1">
          <mxGeometry x="180" y="120" width="120" height="60" as="geometry" />
        </mxCell>
        <mxCell id="subGraph7_label" value="Core Components" style="edgeLabel;html=1;align=center;verticalAlign=middle;resizable=0;labelBackgroundColor=white;spacing=5" parent="subGraph8" vertex="1">
          <mxGeometry x="935" y="898" width="444" height="24" as="geometry" />
        </mxCell>
        <mxCell id="subGraph6" value="" style="html=1;whiteSpace=wrap;container=1;fillColor=#dae8fc;strokeColor=#6c8ebf;dashed=1;fillOpacity=20;strokeWidth=2;containerType=none;recursiveResize=0;movable=1;resizable=1;autosize=0;dropTarget=0" parent="subGraph8" vertex="1">
          <mxGeometry x="110" y="1273" width="920" height="1067" as="geometry" />
        </mxCell>
        <mxCell id="subGraph5" value="" style="html=1;whiteSpace=wrap;container=1;fillColor=#dae8fc;strokeColor=#6c8ebf;dashed=1;fillOpacity=20;strokeWidth=2;containerType=none;recursiveResize=0;movable=1;resizable=1;autosize=0;dropTarget=0" parent="subGraph6" vertex="1">
          <mxGeometry x="60" y="110" width="797" height="820" as="geometry" />
        </mxCell>
        <mxCell id="Models" value="" style="html=1;whiteSpace=wrap;container=1;fillColor=#dae8fc;strokeColor=#6c8ebf;dashed=1;fillOpacity=20;strokeWidth=2;containerType=none;recursiveResize=0;movable=1;resizable=1;autosize=0;dropTarget=0" parent="subGraph5" vertex="1">
          <mxGeometry x="387" y="395" width="400" height="420" as="geometry" />
        </mxCell>
        <mxCell id="UserModel" value="User Model&lt;br&gt;SQLAlchemy ORM" style="rounded=1;whiteSpace=wrap;html=1;fillColor=#f5f5f5" parent="Models" vertex="1">
          <mxGeometry x="200" y="120" width="120" height="60" as="geometry" />
        </mxCell>
        <mxCell id="BookModel" value="Book Model&lt;br&gt;SQLAlchemy ORM" style="rounded=1;whiteSpace=wrap;html=1;fillColor=#f5f5f5" parent="Models" vertex="1">
          <mxGeometry x="180" y="220" width="120" height="60" as="geometry" />
        </mxCell>
        <mxCell id="AuthorModel" value="Author Model&lt;br&gt;SQLAlchemy ORM" style="rounded=1;whiteSpace=wrap;html=1;fillColor=#f5f5f5" parent="Models" vertex="1">
          <mxGeometry x="40" y="320" width="120" height="60" as="geometry" />
        </mxCell>
        <mxCell id="GenreModel" value="Genre Model&lt;br&gt;SQLAlchemy ORM" style="rounded=1;whiteSpace=wrap;html=1;fillColor=#f5f5f5" parent="Models" vertex="1">
          <mxGeometry x="180" y="320" width="120" height="60" as="geometry" />
        </mxCell>
        <mxCell id="Models_label" value="Models" style="edgeLabel;html=1;align=center;verticalAlign=middle;resizable=0;labelBackgroundColor=white;spacing=5" parent="subGraph5" vertex="1">
          <mxGeometry x="395" y="403" width="324" height="24" as="geometry" />
        </mxCell>
        <mxCell id="Repositories" value="" style="html=1;whiteSpace=wrap;container=1;fillColor=#dae8fc;strokeColor=#6c8ebf;dashed=1;fillOpacity=20;strokeWidth=2;containerType=none;recursiveResize=0;movable=1;resizable=1;autosize=0;dropTarget=0" parent="subGraph5" vertex="1">
          <mxGeometry x="50" y="95" width="660" height="220" as="geometry" />
        </mxCell>
        <mxCell id="UserRepo" value="User Repository&lt;br&gt;SQLAlchemy" style="rounded=1;whiteSpace=wrap;html=1;fillColor=#f5f5f5" parent="Repositories" vertex="1">
          <mxGeometry x="460" y="120" width="120" height="60" as="geometry" />
        </mxCell>
        <mxCell id="BookRepo" value="Book Repository&lt;br&gt;SQLAlchemy" style="rounded=1;whiteSpace=wrap;html=1;fillColor=#f5f5f5" parent="Repositories" vertex="1">
          <mxGeometry x="320" y="120" width="120" height="60" as="geometry" />
        </mxCell>
        <mxCell id="AuthorRepo" value="Author Repository&lt;br&gt;SQLAlchemy" style="rounded=1;whiteSpace=wrap;html=1;fillColor=#f5f5f5" parent="Repositories" vertex="1">
          <mxGeometry x="40" y="120" width="120" height="60" as="geometry" />
        </mxCell>
        <mxCell id="GenreRepo" value="Genre Repository&lt;br&gt;SQLAlchemy" style="rounded=1;whiteSpace=wrap;html=1;fillColor=#f5f5f5" parent="Repositories" vertex="1">
          <mxGeometry x="180" y="120" width="120" height="60" as="geometry" />
        </mxCell>
        <mxCell id="Repositories_label" value="Repositories" style="edgeLabel;html=1;align=center;verticalAlign=middle;resizable=0;labelBackgroundColor=white;spacing=5" parent="subGraph5" vertex="1">
          <mxGeometry x="58" y="103" width="584" height="24" as="geometry" />
        </mxCell>
        <mxCell id="SessionManager" value="Session Manager&lt;br&gt;SQLAlchemy" style="rounded=1;whiteSpace=wrap;html=1;fillColor=#f5f5f5" parent="subGraph5" vertex="1">
          <mxGeometry x="237" y="488" width="120" height="60" as="geometry" />
        </mxCell>
        <mxCell id="subGraph5_label" value="Database Components" style="edgeLabel;html=1;align=center;verticalAlign=middle;resizable=0;labelBackgroundColor=white;spacing=5" parent="subGraph6" vertex="1">
          <mxGeometry x="68" y="118" width="721" height="24" as="geometry" />
        </mxCell>
        <mxCell id="PostgresDB" value="Database&lt;br&gt;PostgreSQL" style="rounded=1;whiteSpace=wrap;html=1;fillColor=#f5f5f5" parent="subGraph6" vertex="1">
          <mxGeometry x="277" y="975" width="120" height="60" as="geometry" />
        </mxCell>
        <mxCell id="subGraph6_label" value="Database Layer" style="edgeLabel;html=1;align=center;verticalAlign=middle;resizable=0;labelBackgroundColor=white;spacing=5" parent="subGraph8" vertex="1">
          <mxGeometry x="118" y="1281" width="781" height="24" as="geometry" />
        </mxCell>
        <mxCell id="subGraph2" value="" style="html=1;whiteSpace=wrap;container=1;fillColor=#dae8fc;strokeColor=#6c8ebf;dashed=1;fillOpacity=20;strokeWidth=2;containerType=none;recursiveResize=0;movable=1;resizable=1;autosize=0;dropTarget=0" parent="subGraph8" vertex="1">
          <mxGeometry x="280" y="110" width="671" height="730" as="geometry" />
        </mxCell>
        <mxCell id="subGraph1" value="" style="html=1;whiteSpace=wrap;container=1;fillColor=#dae8fc;strokeColor=#6c8ebf;dashed=1;fillOpacity=20;strokeWidth=2;containerType=none;recursiveResize=0;movable=1;resizable=1;autosize=0;dropTarget=0" parent="subGraph2" vertex="1">
          <mxGeometry x="281" y="395" width="359" height="295" as="geometry" />
        </mxCell>
        <mxCell id="SecurityCore" value="Security Core&lt;br&gt;JWT + OAuth2" style="rounded=1;whiteSpace=wrap;html=1;fillColor=#f5f5f5" parent="subGraph1" vertex="1">
          <mxGeometry x="60" y="120" width="120" height="60" as="geometry" />
        </mxCell>
        <mxCell id="PasswordManager" value="Password Manager&lt;br&gt;SHA256" style="rounded=1;whiteSpace=wrap;html=1;fillColor=#f5f5f5" parent="subGraph1" vertex="1">
          <mxGeometry x="40" y="220" width="120" height="60" as="geometry" />
        </mxCell>
        <mxCell id="TokenHandler" value="Token Handler&lt;br&gt;PyJWT" style="rounded=1;whiteSpace=wrap;html=1;fillColor=#f5f5f5" parent="subGraph1" vertex="1">
          <mxGeometry x="180" y="220" width="120" height="60" as="geometry" />
        </mxCell>
        <mxCell id="subGraph1_label" value="Security Components" style="edgeLabel;html=1;align=center;verticalAlign=middle;resizable=0;labelBackgroundColor=white;spacing=5" parent="subGraph2" vertex="1">
          <mxGeometry x="289" y="403" width="304" height="24" as="geometry" />
        </mxCell>
        <mxCell id="subGraph0" value="" style="html=1;whiteSpace=wrap;container=1;fillColor=#dae8fc;strokeColor=#6c8ebf;dashed=1;fillOpacity=20;strokeWidth=2;containerType=none;recursiveResize=0;movable=1;resizable=1;autosize=0;dropTarget=0" parent="subGraph2" vertex="1">
          <mxGeometry x="50" y="95" width="380" height="220" as="geometry" />
        </mxCell>
        <mxCell id="AuthAPI" value="Auth API&lt;br&gt;FastAPI Router" style="rounded=1;whiteSpace=wrap;html=1;fillColor=#f5f5f5" parent="subGraph0" vertex="1">
          <mxGeometry x="180" y="120" width="120" height="60" as="geometry" />
        </mxCell>
        <mxCell id="BooksAPI" value="Books API&lt;br&gt;FastAPI Router" style="rounded=1;whiteSpace=wrap;html=1;fillColor=#f5f5f5" parent="subGraph0" vertex="1">
          <mxGeometry x="40" y="120" width="120" height="60" as="geometry" />
        </mxCell>
        <mxCell id="subGraph0_label" value="API Endpoints" style="edgeLabel;html=1;align=center;verticalAlign=middle;resizable=0;labelBackgroundColor=white;spacing=5" parent="subGraph2" vertex="1">
          <mxGeometry x="58" y="103" width="304" height="24" as="geometry" />
        </mxCell>
        <mxCell id="FastAPI" value="API Server&lt;br&gt;FastAPI" style="rounded=1;whiteSpace=wrap;html=1;fillColor=#f5f5f5" parent="subGraph2" vertex="1">
          <mxGeometry x="130" y="645" width="120" height="60" as="geometry" />
        </mxCell>
        <mxCell id="subGraph2_label" value="API Layer" style="edgeLabel;html=1;align=center;verticalAlign=middle;resizable=0;labelBackgroundColor=white;spacing=5" parent="subGraph8" vertex="1">
          <mxGeometry x="288" y="118" width="595" height="24" as="geometry" />
        </mxCell>
        <mxCell id="subGraph8_label" value="FastAPI Backend System" style="edgeLabel;html=1;align=center;verticalAlign=middle;resizable=0;labelBackgroundColor=white;spacing=5" parent="1" vertex="1">
          <mxGeometry x="136" y="402" width="1285" height="24" as="geometry" />
        </mxCell>
        <mxCell id="User" value="User" style="rounded=1;whiteSpace=wrap;html=1;fillColor=#f5f5f5" parent="1" vertex="1">
          <mxGeometry x="760" y="230" width="120" height="60" as="geometry" />
        </mxCell>
        <mxCell id="Admin" value="Admin" style="rounded=1;whiteSpace=wrap;html=1;fillColor=#f5f5f5" parent="1" vertex="1">
          <mxGeometry x="400" y="60" width="120" height="60" as="geometry" />
        </mxCell>
        <mxCell id="edge-L_User_AuthAPI_0" style="edgeStyle=orthogonalEdgeStyle;rounded=1;orthogonalLoop=1;jettySize=auto;html=1;strokeColor=#808080;strokeWidth=2;jumpStyle=arc;jumpSize=10;spacing=15;labelBackgroundColor=white;labelBorderColor=none" parent="1" source="User" target="AuthAPI" edge="1">
          <mxGeometry relative="1" as="geometry" />
        </mxCell>
        <mxCell id="edge-L_User_AuthAPI_0_label" value="Authenticates" style="edgeLabel;html=1;align=center;verticalAlign=middle;resizable=0;points=[];" parent="edge-L_User_AuthAPI_0" vertex="1" connectable="0">
          <mxGeometry x="-0.2" y="10" relative="1" as="geometry">
            <mxPoint as="offset" />
          </mxGeometry>
        </mxCell>
        <mxCell id="edge-L_User_BooksAPI_1" style="edgeStyle=orthogonalEdgeStyle;rounded=1;orthogonalLoop=1;jettySize=auto;html=1;strokeColor=#808080;strokeWidth=2;jumpStyle=arc;jumpSize=10;spacing=15;labelBackgroundColor=white;labelBorderColor=none" parent="1" source="User" target="BooksAPI" edge="1">
          <mxGeometry relative="1" as="geometry" />
        </mxCell>
        <mxCell id="edge-L_User_BooksAPI_1_label" value="Manages Books" style="edgeLabel;html=1;align=center;verticalAlign=middle;resizable=0;points=[];" parent="edge-L_User_BooksAPI_1" vertex="1" connectable="0">
          <mxGeometry x="-0.2" y="10" relative="1" as="geometry">
            <mxPoint as="offset" />
          </mxGeometry>
        </mxCell>
        <mxCell id="edge-L_Admin_BooksAPI_2" style="edgeStyle=orthogonalEdgeStyle;rounded=1;orthogonalLoop=1;jettySize=auto;html=1;strokeColor=#808080;strokeWidth=2;jumpStyle=arc;jumpSize=10;spacing=15;labelBackgroundColor=white;labelBorderColor=none" parent="1" source="Admin" target="BooksAPI" edge="1">
          <mxGeometry relative="1" as="geometry" />
        </mxCell>
        <mxCell id="edge-L_Admin_BooksAPI_2_label" value="Admin Operations" style="edgeLabel;html=1;align=center;verticalAlign=middle;resizable=0;points=[];" parent="edge-L_Admin_BooksAPI_2" vertex="1" connectable="0">
          <mxGeometry x="-0.2" y="10" relative="1" as="geometry">
            <mxPoint as="offset" />
          </mxGeometry>
        </mxCell>
        <mxCell id="edge-L_AuthAPI_SecurityCore_3" style="edgeStyle=orthogonalEdgeStyle;rounded=1;orthogonalLoop=1;jettySize=auto;html=1;strokeColor=#808080;strokeWidth=2;jumpStyle=arc;jumpSize=10;spacing=15;labelBackgroundColor=white;labelBorderColor=none" parent="1" source="AuthAPI" target="SecurityCore" edge="1">
          <mxGeometry relative="1" as="geometry" />
        </mxCell>
        <mxCell id="edge-L_AuthAPI_SecurityCore_3_label" value="Uses" style="edgeLabel;html=1;align=center;verticalAlign=middle;resizable=0;points=[];" parent="edge-L_AuthAPI_SecurityCore_3" vertex="1" connectable="0">
          <mxGeometry x="-0.2" y="10" relative="1" as="geometry">
            <mxPoint as="offset" />
          </mxGeometry>
        </mxCell>
        <mxCell id="edge-L_BooksAPI_SecurityCore_4" style="edgeStyle=orthogonalEdgeStyle;rounded=1;orthogonalLoop=1;jettySize=auto;html=1;strokeColor=#808080;strokeWidth=2;jumpStyle=arc;jumpSize=10;spacing=15;labelBackgroundColor=white;labelBorderColor=none" parent="1" source="BooksAPI" target="SecurityCore" edge="1">
          <mxGeometry relative="1" as="geometry" />
        </mxCell>
        <mxCell id="edge-L_BooksAPI_SecurityCore_4_label" value="Uses" style="edgeLabel;html=1;align=center;verticalAlign=middle;resizable=0;points=[];" parent="edge-L_BooksAPI_SecurityCore_4" vertex="1" connectable="0">
          <mxGeometry x="-0.2" y="10" relative="1" as="geometry">
            <mxPoint as="offset" />
          </mxGeometry>
        </mxCell>
        <mxCell id="edge-L_SecurityCore_PasswordManager_5" style="edgeStyle=orthogonalEdgeStyle;rounded=1;orthogonalLoop=1;jettySize=auto;html=1;strokeColor=#808080;strokeWidth=2;jumpStyle=arc;jumpSize=10;spacing=15;labelBackgroundColor=white;labelBorderColor=none" parent="1" source="SecurityCore" target="PasswordManager" edge="1">
          <mxGeometry relative="1" as="geometry" />
        </mxCell>
        <mxCell id="edge-L_SecurityCore_PasswordManager_5_label" value="Uses" style="edgeLabel;html=1;align=center;verticalAlign=middle;resizable=0;points=[];" parent="edge-L_SecurityCore_PasswordManager_5" vertex="1" connectable="0">
          <mxGeometry x="-0.2" y="10" relative="1" as="geometry">
            <mxPoint as="offset" />
          </mxGeometry>
        </mxCell>
        <mxCell id="edge-L_SecurityCore_TokenHandler_6" style="edgeStyle=orthogonalEdgeStyle;rounded=1;orthogonalLoop=1;jettySize=auto;html=1;strokeColor=#808080;strokeWidth=2;jumpStyle=arc;jumpSize=10;spacing=15;labelBackgroundColor=white;labelBorderColor=none" parent="1" source="SecurityCore" target="TokenHandler" edge="1">
          <mxGeometry relative="1" as="geometry" />
        </mxCell>
        <mxCell id="edge-L_SecurityCore_TokenHandler_6_label" value="Uses" style="edgeLabel;html=1;align=center;verticalAlign=middle;resizable=0;points=[];" parent="edge-L_SecurityCore_TokenHandler_6" vertex="1" connectable="0">
          <mxGeometry x="-0.2" y="10" relative="1" as="geometry">
            <mxPoint as="offset" />
          </mxGeometry>
        </mxCell>
        <mxCell id="edge-L_AuthAPI_UserRepo_7" style="edgeStyle=orthogonalEdgeStyle;rounded=1;orthogonalLoop=1;jettySize=auto;html=1;strokeColor=#808080;strokeWidth=2;jumpStyle=arc;jumpSize=10;spacing=15;labelBackgroundColor=white;labelBorderColor=none" parent="1" source="AuthAPI" target="UserRepo" edge="1">
          <mxGeometry relative="1" as="geometry" />
        </mxCell>
        <mxCell id="edge-L_AuthAPI_UserRepo_7_label" value="Uses" style="edgeLabel;html=1;align=center;verticalAlign=middle;resizable=0;points=[];" parent="edge-L_AuthAPI_UserRepo_7" vertex="1" connectable="0">
          <mxGeometry x="-0.2" y="10" relative="1" as="geometry">
            <mxPoint as="offset" />
          </mxGeometry>
        </mxCell>
        <mxCell id="edge-L_BooksAPI_BookRepo_8" style="edgeStyle=orthogonalEdgeStyle;rounded=1;orthogonalLoop=1;jettySize=auto;html=1;strokeColor=#808080;strokeWidth=2;jumpStyle=arc;jumpSize=10;spacing=15;labelBackgroundColor=white;labelBorderColor=none" parent="1" source="BooksAPI" target="BookRepo" edge="1">
          <mxGeometry relative="1" as="geometry" />
        </mxCell>
        <mxCell id="edge-L_BooksAPI_BookRepo_8_label" value="Uses" style="edgeLabel;html=1;align=center;verticalAlign=middle;resizable=0;points=[];" parent="edge-L_BooksAPI_BookRepo_8" vertex="1" connectable="0">
          <mxGeometry x="-0.2" y="10" relative="1" as="geometry">
            <mxPoint as="offset" />
          </mxGeometry>
        </mxCell>
        <mxCell id="edge-L_BooksAPI_AuthorRepo_9" style="edgeStyle=orthogonalEdgeStyle;rounded=1;orthogonalLoop=1;jettySize=auto;html=1;strokeColor=#808080;strokeWidth=2;jumpStyle=arc;jumpSize=10;spacing=15;labelBackgroundColor=white;labelBorderColor=none" parent="1" source="BooksAPI" target="AuthorRepo" edge="1">
          <mxGeometry relative="1" as="geometry" />
        </mxCell>
        <mxCell id="edge-L_BooksAPI_AuthorRepo_9_label" value="Uses" style="edgeLabel;html=1;align=center;verticalAlign=middle;resizable=0;points=[];" parent="edge-L_BooksAPI_AuthorRepo_9" vertex="1" connectable="0">
          <mxGeometry x="-0.2" y="10" relative="1" as="geometry">
            <mxPoint as="offset" />
          </mxGeometry>
        </mxCell>
        <mxCell id="edge-L_BooksAPI_GenreRepo_10" style="edgeStyle=orthogonalEdgeStyle;rounded=1;orthogonalLoop=1;jettySize=auto;html=1;strokeColor=#808080;strokeWidth=2;jumpStyle=arc;jumpSize=10;spacing=15;labelBackgroundColor=white;labelBorderColor=none" parent="1" source="BooksAPI" target="GenreRepo" edge="1">
          <mxGeometry relative="1" as="geometry" />
        </mxCell>
        <mxCell id="edge-L_BooksAPI_GenreRepo_10_label" value="Uses" style="edgeLabel;html=1;align=center;verticalAlign=middle;resizable=0;points=[];" parent="edge-L_BooksAPI_GenreRepo_10" vertex="1" connectable="0">
          <mxGeometry x="-0.2" y="10" relative="1" as="geometry">
            <mxPoint as="offset" />
          </mxGeometry>
        </mxCell>
        <mxCell id="edge-L_UserRepo_SessionManager_11" style="edgeStyle=orthogonalEdgeStyle;rounded=1;orthogonalLoop=1;jettySize=auto;html=1;strokeColor=#808080;strokeWidth=2;jumpStyle=arc;jumpSize=10;spacing=15;labelBackgroundColor=white;labelBorderColor=none" parent="1" source="UserRepo" target="SessionManager" edge="1">
          <mxGeometry relative="1" as="geometry" />
        </mxCell>
        <mxCell id="edge-L_UserRepo_SessionManager_11_label" value="Uses" style="edgeLabel;html=1;align=center;verticalAlign=middle;resizable=0;points=[];" parent="edge-L_UserRepo_SessionManager_11" vertex="1" connectable="0">
          <mxGeometry x="-0.2" y="10" relative="1" as="geometry">
            <mxPoint as="offset" />
          </mxGeometry>
        </mxCell>
        <mxCell id="edge-L_BookRepo_SessionManager_12" style="edgeStyle=orthogonalEdgeStyle;rounded=1;orthogonalLoop=1;jettySize=auto;html=1;strokeColor=#808080;strokeWidth=2;jumpStyle=arc;jumpSize=10;spacing=15;labelBackgroundColor=white;labelBorderColor=none" parent="1" source="BookRepo" target="SessionManager" edge="1">
          <mxGeometry relative="1" as="geometry" />
        </mxCell>
        <mxCell id="edge-L_BookRepo_SessionManager_12_label" value="Uses" style="edgeLabel;html=1;align=center;verticalAlign=middle;resizable=0;points=[];" parent="edge-L_BookRepo_SessionManager_12" vertex="1" connectable="0">
          <mxGeometry x="-0.2" y="10" relative="1" as="geometry">
            <mxPoint as="offset" />
          </mxGeometry>
        </mxCell>
        <mxCell id="edge-L_AuthorRepo_SessionManager_13" style="edgeStyle=orthogonalEdgeStyle;rounded=1;orthogonalLoop=1;jettySize=auto;html=1;strokeColor=#808080;strokeWidth=2;jumpStyle=arc;jumpSize=10;spacing=15;labelBackgroundColor=white;labelBorderColor=none" parent="1" source="AuthorRepo" target="SessionManager" edge="1">
          <mxGeometry relative="1" as="geometry" />
        </mxCell>
        <mxCell id="edge-L_AuthorRepo_SessionManager_13_label" value="Uses" style="edgeLabel;html=1;align=center;verticalAlign=middle;resizable=0;points=[];" parent="edge-L_AuthorRepo_SessionManager_13" vertex="1" connectable="0">
          <mxGeometry x="-0.2" y="10" relative="1" as="geometry">
            <mxPoint as="offset" />
          </mxGeometry>
        </mxCell>
        <mxCell id="edge-L_GenreRepo_SessionManager_14" style="edgeStyle=orthogonalEdgeStyle;rounded=1;orthogonalLoop=1;jettySize=auto;html=1;strokeColor=#808080;strokeWidth=2;jumpStyle=arc;jumpSize=10;spacing=15;labelBackgroundColor=white;labelBorderColor=none" parent="1" source="GenreRepo" target="SessionManager" edge="1">
          <mxGeometry relative="1" as="geometry" />
        </mxCell>
        <mxCell id="edge-L_GenreRepo_SessionManager_14_label" value="Uses" style="edgeLabel;html=1;align=center;verticalAlign=middle;resizable=0;points=[];" parent="edge-L_GenreRepo_SessionManager_14" vertex="1" connectable="0">
          <mxGeometry x="-0.2" y="10" relative="1" as="geometry">
            <mxPoint as="offset" />
          </mxGeometry>
        </mxCell>
        <mxCell id="edge-L_SessionManager_PostgresDB_15" style="edgeStyle=orthogonalEdgeStyle;rounded=1;orthogonalLoop=1;jettySize=auto;html=1;strokeColor=#808080;strokeWidth=2;jumpStyle=arc;jumpSize=10;spacing=15;labelBackgroundColor=white;labelBorderColor=none" parent="1" source="SessionManager" target="PostgresDB" edge="1">
          <mxGeometry relative="1" as="geometry" />
        </mxCell>
        <mxCell id="edge-L_SessionManager_PostgresDB_15_label" value="Manages" style="edgeLabel;html=1;align=center;verticalAlign=middle;resizable=0;points=[];" parent="edge-L_SessionManager_PostgresDB_15" vertex="1" connectable="0">
          <mxGeometry x="-0.2" y="10" relative="1" as="geometry">
            <mxPoint as="offset" />
          </mxGeometry>
        </mxCell>
        <mxCell id="edge-L_UserRepo_UserModel_16" style="edgeStyle=orthogonalEdgeStyle;rounded=1;orthogonalLoop=1;jettySize=auto;html=1;strokeColor=#808080;strokeWidth=2;jumpStyle=arc;jumpSize=10;spacing=15;labelBackgroundColor=white;labelBorderColor=none" parent="1" source="UserRepo" target="UserModel" edge="1">
          <mxGeometry relative="1" as="geometry" />
        </mxCell>
        <mxCell id="edge-L_UserRepo_UserModel_16_label" value="Uses" style="edgeLabel;html=1;align=center;verticalAlign=middle;resizable=0;points=[];" parent="edge-L_UserRepo_UserModel_16" vertex="1" connectable="0">
          <mxGeometry x="-0.2" y="10" relative="1" as="geometry">
            <mxPoint as="offset" />
          </mxGeometry>
        </mxCell>
        <mxCell id="edge-L_BookRepo_BookModel_17" style="edgeStyle=orthogonalEdgeStyle;rounded=1;orthogonalLoop=1;jettySize=auto;html=1;strokeColor=#808080;strokeWidth=2;jumpStyle=arc;jumpSize=10;spacing=15;labelBackgroundColor=white;labelBorderColor=none" parent="1" source="BookRepo" target="BookModel" edge="1">
          <mxGeometry relative="1" as="geometry" />
        </mxCell>
        <mxCell id="edge-L_BookRepo_BookModel_17_label" value="Uses" style="edgeLabel;html=1;align=center;verticalAlign=middle;resizable=0;points=[];" parent="edge-L_BookRepo_BookModel_17" vertex="1" connectable="0">
          <mxGeometry x="-0.2" y="10" relative="1" as="geometry">
            <mxPoint as="offset" />
          </mxGeometry>
        </mxCell>
        <mxCell id="edge-L_AuthorRepo_AuthorModel_18" style="edgeStyle=orthogonalEdgeStyle;rounded=1;orthogonalLoop=1;jettySize=auto;html=1;strokeColor=#808080;strokeWidth=2;jumpStyle=arc;jumpSize=10;spacing=15;labelBackgroundColor=white;labelBorderColor=none" parent="1" source="AuthorRepo" target="AuthorModel" edge="1">
          <mxGeometry relative="1" as="geometry" />
        </mxCell>
        <mxCell id="edge-L_AuthorRepo_AuthorModel_18_label" value="Uses" style="edgeLabel;html=1;align=center;verticalAlign=middle;resizable=0;points=[];" parent="edge-L_AuthorRepo_AuthorModel_18" vertex="1" connectable="0">
          <mxGeometry x="-0.2" y="10" relative="1" as="geometry">
            <mxPoint as="offset" />
          </mxGeometry>
        </mxCell>
        <mxCell id="edge-L_GenreRepo_GenreModel_19" style="edgeStyle=orthogonalEdgeStyle;rounded=1;orthogonalLoop=1;jettySize=auto;html=1;strokeColor=#808080;strokeWidth=2;jumpStyle=arc;jumpSize=10;spacing=15;labelBackgroundColor=white;labelBorderColor=none" parent="1" source="GenreRepo" target="GenreModel" edge="1">
          <mxGeometry relative="1" as="geometry" />
        </mxCell>
        <mxCell id="edge-L_GenreRepo_GenreModel_19_label" value="Uses" style="edgeLabel;html=1;align=center;verticalAlign=middle;resizable=0;points=[];" parent="edge-L_GenreRepo_GenreModel_19" vertex="1" connectable="0">
          <mxGeometry x="-0.2" y="10" relative="1" as="geometry">
            <mxPoint as="offset" />
          </mxGeometry>
        </mxCell>
        <mxCell id="edge-L_FastAPI_ConfigManager_20" style="edgeStyle=orthogonalEdgeStyle;rounded=1;orthogonalLoop=1;jettySize=auto;html=1;strokeColor=#808080;strokeWidth=2;jumpStyle=arc;jumpSize=10;spacing=15;labelBackgroundColor=white;labelBorderColor=none" parent="1" source="FastAPI" target="ConfigManager" edge="1">
          <mxGeometry relative="1" as="geometry" />
        </mxCell>
        <mxCell id="edge-L_FastAPI_ConfigManager_20_label" value="Configures" style="edgeLabel;html=1;align=center;verticalAlign=middle;resizable=0;points=[];" parent="edge-L_FastAPI_ConfigManager_20" vertex="1" connectable="0">
          <mxGeometry x="-0.2" y="10" relative="1" as="geometry">
            <mxPoint as="offset" />
          </mxGeometry>
        </mxCell>
        <mxCell id="edge-L_AuthAPI_DTOLayer_21" style="edgeStyle=orthogonalEdgeStyle;rounded=1;orthogonalLoop=1;jettySize=auto;html=1;strokeColor=#808080;strokeWidth=2;jumpStyle=arc;jumpSize=10;spacing=15;labelBackgroundColor=white;labelBorderColor=none" parent="1" source="AuthAPI" target="DTOLayer" edge="1">
          <mxGeometry relative="1" as="geometry" />
        </mxCell>
        <mxCell id="edge-L_AuthAPI_DTOLayer_21_label" value="Validates" style="edgeLabel;html=1;align=center;verticalAlign=middle;resizable=0;points=[];" parent="edge-L_AuthAPI_DTOLayer_21" vertex="1" connectable="0">
          <mxGeometry x="-0.2" y="10" relative="1" as="geometry">
            <mxPoint as="offset" />
          </mxGeometry>
        </mxCell>
        <mxCell id="edge-L_BooksAPI_DTOLayer_22" style="edgeStyle=orthogonalEdgeStyle;rounded=1;orthogonalLoop=1;jettySize=auto;html=1;strokeColor=#808080;strokeWidth=2;jumpStyle=arc;jumpSize=10;spacing=15;labelBackgroundColor=white;labelBorderColor=none" parent="1" source="BooksAPI" target="DTOLayer" edge="1">
          <mxGeometry relative="1" as="geometry" />
        </mxCell>
        <mxCell id="edge-L_BooksAPI_DTOLayer_22_label" value="Validates" style="edgeLabel;html=1;align=center;verticalAlign=middle;resizable=0;points=[];" parent="edge-L_BooksAPI_DTOLayer_22" vertex="1" connectable="0">
          <mxGeometry x="-0.2" y="10" relative="1" as="geometry">
            <mxPoint as="offset" />
          </mxGeometry>
        </mxCell>
        <mxCell id="edge-L_BooksAPI_ExportService_23" style="edgeStyle=orthogonalEdgeStyle;rounded=1;orthogonalLoop=1;jettySize=auto;html=1;strokeColor=#808080;strokeWidth=2;jumpStyle=arc;jumpSize=10;spacing=15;labelBackgroundColor=white;labelBorderColor=none" parent="1" source="BooksAPI" target="ExportService" edge="1">
          <mxGeometry relative="1" as="geometry" />
        </mxCell>
        <mxCell id="edge-L_BooksAPI_ExportService_23_label" value="Uses" style="edgeLabel;html=1;align=center;verticalAlign=middle;resizable=0;points=[];" parent="edge-L_BooksAPI_ExportService_23" vertex="1" connectable="0">
          <mxGeometry x="-0.2" y="10" relative="1" as="geometry">
            <mxPoint as="offset" />
          </mxGeometry>
        </mxCell>
        <mxCell id="edge-L_UserModel_BookModel_24" style="edgeStyle=orthogonalEdgeStyle;rounded=1;orthogonalLoop=1;jettySize=auto;html=1;strokeColor=#808080;strokeWidth=2;jumpStyle=arc;jumpSize=10;spacing=15;labelBackgroundColor=white;labelBorderColor=none" parent="1" source="UserModel" target="BookModel" edge="1">
          <mxGeometry relative="1" as="geometry" />
        </mxCell>
        <mxCell id="edge-L_UserModel_BookModel_24_label" value="Has Favorites" style="edgeLabel;html=1;align=center;verticalAlign=middle;resizable=0;points=[];" parent="edge-L_UserModel_BookModel_24" vertex="1" connectable="0">
          <mxGeometry x="-0.2" y="10" relative="1" as="geometry">
            <mxPoint as="offset" />
          </mxGeometry>
        </mxCell>
        <mxCell id="edge-L_BookModel_AuthorModel_25" style="edgeStyle=orthogonalEdgeStyle;rounded=1;orthogonalLoop=1;jettySize=auto;html=1;strokeColor=#808080;strokeWidth=2;jumpStyle=arc;jumpSize=10;spacing=15;labelBackgroundColor=white;labelBorderColor=none" parent="1" source="BookModel" target="AuthorModel" edge="1">
          <mxGeometry relative="1" as="geometry" />
        </mxCell>
        <mxCell id="edge-L_BookModel_AuthorModel_25_label" value="Has Many" style="edgeLabel;html=1;align=center;verticalAlign=middle;resizable=0;points=[];" parent="edge-L_BookModel_AuthorModel_25" vertex="1" connectable="0">
          <mxGeometry x="-0.2" y="10" relative="1" as="geometry">
            <mxPoint as="offset" />
          </mxGeometry>
        </mxCell>
        <mxCell id="edge-L_BookModel_GenreModel_26" style="edgeStyle=orthogonalEdgeStyle;rounded=1;orthogonalLoop=1;jettySize=auto;html=1;strokeColor=#808080;strokeWidth=2;jumpStyle=arc;jumpSize=10;spacing=15;labelBackgroundColor=white;labelBorderColor=none" parent="1" source="BookModel" target="GenreModel" edge="1">
          <mxGeometry relative="1" as="geometry" />
        </mxCell>
        <mxCell id="edge-L_BookModel_GenreModel_26_label" value="Has Many" style="edgeLabel;html=1;align=center;verticalAlign=middle;resizable=0;points=[];" parent="edge-L_BookModel_GenreModel_26" vertex="1" connectable="0">
          <mxGeometry x="-0.2" y="10" relative="1" as="geometry">
            <mxPoint as="offset" />
          </mxGeometry>
        </mxCell>
      </root>
    </mxGraphModel>
  </diagram>
</mxfile>
